<?xml version="1.0" standalone="no"?><!DOCTYPE svg PUBLIC "-//W3C//DTD SVG 1.1//EN" "http://www.w3.org/Graphics/SVG/1.1/DTD/svg11.dtd"><svg t="1699684538226" class="icon" viewBox="0 0 1024 1024" version="1.1" xmlns="http://www.w3.org/2000/svg" p-id="15556" xmlns:xlink="http://www.w3.org/1999/xlink" width="200" height="200"><path d="M729.54 853.333333H96a53.393333 53.393333 0 0 1-53.333333-53.333333V224a53.393333 53.393333 0 0 1 53.333333-53.333333h633.54a53.246667 53.246667 0 0 1 44.38 23.746666l192 288a53.206667 53.206667 0 0 1 0 59.173334l-192 288a53.246667 53.246667 0 0 1-44.38 23.746666zM96 213.333333a10.666667 10.666667 0 0 0-10.666667 10.666667v576a10.666667 10.666667 0 0 0 10.666667 10.666667h633.54a10.666667 10.666667 0 0 0 8.873333-4.746667l192-288a10.666667 10.666667 0 0 0 0-11.84l-192-288a10.666667 10.666667 0 0 0-8.873333-4.746667z" fill="#235aff" p-id="15557"></path></svg>