<?xml version="1.0" standalone="no"?><!DOCTYPE svg PUBLIC "-//W3C//DTD SVG 1.1//EN" "http://www.w3.org/Graphics/SVG/1.1/DTD/svg11.dtd"><svg t="1695759907124" class="icon" viewBox="0 0 1024 1024" version="1.1" xmlns="http://www.w3.org/2000/svg" p-id="10667" xmlns:xlink="http://www.w3.org/1999/xlink" width="200" height="200"><path d="M492.568501 509.635181 33.986182 51.052862C27.321235 44.387914 27.321234 33.581899 33.986182 26.916951 40.651129 20.252005 51.457146 20.252003 58.122094 26.916951L516.704412 485.499269 975.28673 26.916951C981.951676 20.252005 992.757693 20.252003 999.422641 26.916951 1006.08759 33.5819 1006.087588 44.387917 999.422641 51.052863L540.840324 509.635181 1000.659525 969.454382C1007.324473 976.11933 1007.324471 986.925347 1000.659525 993.590293 993.994576 1000.255242 983.188562 1000.255242 976.523613 993.590293L516.704412 533.771092 56.885209 993.590295C50.220261 1000.255243 39.414246 1000.255244 32.749298 993.590295 26.084349 986.925347 26.08435 976.119332 32.749298 969.454384L492.568501 509.635181Z" fill="#FFFFFF" p-id="10668"></path></svg>