<?xml version="1.0" standalone="no"?><!DOCTYPE svg PUBLIC "-//W3C//DTD SVG 1.1//EN" "http://www.w3.org/Graphics/SVG/1.1/DTD/svg11.dtd"><svg t="1693947446467" class="icon" viewBox="0 0 1024 1024" version="1.1" xmlns="http://www.w3.org/2000/svg" p-id="7594" xmlns:xlink="http://www.w3.org/1999/xlink" width="200" height="200"><path d="M436.4 365c-2.7 6.9-1.8 136.5-1.8 136.5s-0.7 150.5 0.9 155.9c10.5 36 51 26.8 61.7 18.7 8.6-6.5 151.2-126.3 165.9-137.5 26.8-24.2 21.9-37.3 0-53.5-10.6-8.2-153.8-128.7-166.3-137.8-9.3-6.7-46.1-19.7-60.4 17.7z" fill="#040000" p-id="7595"></path><path d="M791.5 218.1l75.6-21.3C792.9 108.3 674.6 64 512 64c-163 0-281.5 44.5-355.5 133.4l73.5 20.7-12.4 43.9-89.3-25.2c-10.6 17.3-19.9 36-27.8 55.9l99.1 28-12.4 43.9L85.8 336c-6 21.1-10.7 43.3-14.2 66.8l99.5 28.1-12.4 43.9-92.3-26C64.8 469.1 64 490.1 64 512v2.2L173 545l-12.4 43.9L65.5 562c1.3 21.9 3.6 42.8 6.7 62.9l127.4 35.9-12.4 43.9-104.8-29.5c6.3 24.6 14.1 47.6 23.6 69l122.1 34.4-12.4 43.9-79-22.3C208.6 906.7 333.7 960 512 960c178.8 0 304.1-53.5 375.8-160.6l-82.1 23.2-12.4-43.9 125-35.3c9.4-21.4 17.2-44.4 23.4-69l-107.5 30.3-12.4-43.9 130-36.7c3.1-20.1 5.3-41 6.6-62.9l-97.7 27.5-12.2-43.7L960 513.5V512c0-22.1-0.8-43.4-2.5-63.9l-94.8 26.7-12.3-43.8 101.9-28.7c-3.5-23.5-8.3-45.8-14.3-66.8l-103.7 29.3-12.4-43.9 101.4-28.6c-8-19.9-17.3-38.6-27.9-55.9L803.8 262l-12.3-43.9zM804.1 512c0 194.8-97.4 292.2-292.1 292.2-194.8 0-292.2-97.4-292.2-292.2S317.2 219.9 512 219.9c194.8 0 292.1 97.3 292.1 292.1z" fill="#040000" p-id="7596"></path></svg>