<?xml version="1.0" standalone="no"?><!DOCTYPE svg PUBLIC "-//W3C//DTD SVG 1.1//EN" "http://www.w3.org/Graphics/SVG/1.1/DTD/svg11.dtd"><svg t="1693938818003" class="icon" viewBox="0 0 1047 1024" version="1.1" xmlns="http://www.w3.org/2000/svg" p-id="14693" xmlns:xlink="http://www.w3.org/1999/xlink" width="204.4921875" height="200"><path d="M278.643757 29.851826l763.941843 0 0 100.919652-763.941843 0 0-100.919652Z" fill="#7A7A7A" p-id="14694"></path><path d="M278.643757 279.95047l763.941843 0 0 100.919652-763.941843 0 0-100.919652Z" fill="#7A7A7A" p-id="14695"></path><path d="M278.643757 541.851826l763.941843 0 0 100.919652-763.941843 0 0-100.919652Z" fill="#7A7A7A" p-id="14696"></path><path d="M71.388383 80.312765m-62.176835 0a2.7931 2.7931 0 1 0 124.35367 0 2.7931 2.7931 0 1 0-124.35367 0Z" fill="#7A7A7A" p-id="14697"></path><path d="M71.388383 330.411409m-62.176835 0a2.7931 2.7931 0 1 0 124.35367 0 2.7931 2.7931 0 1 0-124.35367 0Z" fill="#7A7A7A" p-id="14698"></path><path d="M71.388383 592.312765m-62.176835 0a2.7931 2.7931 0 1 0 124.35367 0 2.7931 2.7931 0 1 0-124.35367 0Z" fill="#7A7A7A" p-id="14699"></path><path d="M389.565217 848.695652 678.956522 848.695652 534.26087 1022.330435 389.565217 848.695652Z" fill="#7A7A7A" p-id="14700"></path></svg>