<?xml version="1.0" standalone="no"?><!DOCTYPE svg PUBLIC "-//W3C//DTD SVG 1.1//EN" "http://www.w3.org/Graphics/SVG/1.1/DTD/svg11.dtd"><svg t="1693936863989" class="icon" viewBox="0 0 1024 1024" version="1.1" xmlns="http://www.w3.org/2000/svg" p-id="4333" xmlns:xlink="http://www.w3.org/1999/xlink" width="200" height="200"><path d="M410.818041 247.676939c6.105045 19.373233 13.953803 38.744419 24.64326 56.568367 10.205433 17.940604 22.527063 34.530444 35.078937 48.773843 11.374048 12.608156 37.048801 41.809221 46.363957 49.232285 2.347464-16.563234 4.381797-33.528628 4.78498-50.750871 0.977257-12.122085 0.141216-24.156166-0.056282-36.049031-0.200568-11.951193-2.352581-23.440875-3.37998-34.761712-2.009773-11.147898-4.728698-21.779026-6.934947-31.951712-3.551896-9.800203-6.907317-19.056008-9.998724-27.594475a5407.285029 5407.285029 0 0 1-11.868306-21.89466c-3.093455-6.847965-8.165983-11.205203-11.17348-15.59007-6.67912-8.452509-10.487865-13.268188-10.487865-13.268188s4.180206 4.500501 11.429307 12.409634c3.355421 4.183276 8.856715 8.280594 12.466939 14.930038 4.070712 6.361895 8.655124 13.554714 13.671371 21.37789 3.808746 8.510838 7.938809 17.709337 12.32163 27.480888 3.006474 10.172687 6.588045 20.947078 9.509584 32.265867 1.895163 11.463076 4.987594 23.297612 6.106068 35.477003 1.087774 12.208043 2.866281 24.617677 2.781347 37.081547 0.5137 14.154371 0.312108 28.16855-0.343831 41.953507 1.119497-1.204431 2.408863-2.206248 3.466961-3.526313 10.486842-11.777231 21.176298-28.712949 29.800723-48.886407 8.371668-20.202111 13.982456-43.557028 15.246239-68.058049 1.809205-24.586978-1.575892-50.179866-8.91095-75.05337-7.596002-24.758893-19.288299-48.914036-35.648918-69.546959-15.877619-20.806885-36.051077-38.316677-57.1977-49.806359-21.177322-11.462053-43.069935-16.448624-58.402131-15.960507-7.455809-0.258896-14.043854 1.803066-17.912975 2.835582-3.89982 1.316995-5.990434 2.004657-5.990435 2.004657s0.48914 2.092661 1.290389 6.046716c0.830925 3.725858 0.921999 10.145058 1.521656 16.049534 0.568958 13.008268-0.721431 28.739555-2.322905 45.907563-2.864234 33.815153-2.119267 73.332169 10.146081 112.303762zM390.36215 889.939725c-0.115634 0.049119-0.176009 0.069585-0.176008 0.069585 0.01535 0.030699 0.075725 0 0.176008-0.069585z" fill="#333333" p-id="4334"></path><path d="M523.352047 741.631958c2.37714-83.991949 7.994068-243.751536 16.879436-261.952061 6.04467-12.296047 13.554714-26.422789 22.491247-41.09393 2.579755-4.15667 7.767917-15.331173 7.082302-17.968234-0.318248-1.632173-0.233314-3.209088-0.318248-4.812609-18.768459 23.584138-33.69952 47.509037-44.331671 66.277496 4.759397-25.414833 9.026584-56.104809 10.547217-88.687902-1.460258 1.518586-2.780323 3.15383-4.472872 4.52813-2.976798 2.004657-7.566326 17.653055-8.592702 24.042579-3.869121 22.322401-8.683776 42.929742-13.383821 60.409859-1.949398 7.248078-3.869121 13.781888-5.672187 19.857256-10.372232-19.685341-28.254507-50.54928-52.302203-80.782861-0.081864 1.576915 0 3.180436-0.313132 4.815679-0.660032 2.63399 4.498454 13.812587 7.077186 17.968234 8.94165 14.671141 16.447601 28.773324 22.497387 41.09393 8.67866 17.71036 14.068414 31.090089 16.536628 37.426401-1.348718 2.921539-0.946558 139.438773 0.056282 219.078601-104.770182 3.233648-165.549453 33.608445-165.549454 33.608445 35.07382 12.985756 72.526827 20.320814 109.922529 24.159236-1.143033 1.057075-2.261507 2.115174-3.374864 3.152806a136.393413 136.393413 0 0 1-5.41943 4.845355c-3.727904 2.952238-7.566326 6.992251-10.744715 11.031241l-3.526313 6.417153c-1.51654 2.438539-2.035356 4.89652-2.835581 7.335059-1.406023 4.926196-1.864464 9.80225-3.295046 14.123672-1.38044 4.393054-3.666506 8.200776-7.052627 11.06194l-0.110517 0.12075v0.02149c-2.009773 1.038656-3.585665 2.982938-6.02011 3.214205-2.034333 0.74599-4.930289 0.775666-7.510044 1.177825-5.212722 0.594541-10.401908 2.317789-15.413038 3.808746-9.172917 2.669806-18.315134 5.621021-27.42256 8.543583l0.941442-0.432858-3.239787 1.177825c-0.200568 0.020466-0.372483 0.080841-0.544399 0.141216v0.029676h-0.030699l0.146332 0.393973c10.286274-2.176572 20.603247-4.232394 30.779004-6.729261 5.182023-1.200338 10.114358-2.549056 15.388479-2.92154 2.635013-0.261966 5.097088-0.171915 8.049326-1.057075 2.981914-0.343831 5.247514-2.550079 7.737219-4.02057 0.916882-0.74599 1.552356-1.74269 2.321881-2.548032-0.316202 1.803066-0.341784 3.615341-0.518816 5.499247-0.141216 2.237971-0.251733 3.728928-0.568958 5.702886-0.146333 4.241604-0.972141 7.172353-2.866281 9.52084-1.89414 2.115174-5.389754 3.555989-7.909133 4.986571-4.705162 2.569522-7.414877 5.238304-8.104586 5.742795 0.791016-0.354064 4.232394-1.813299 9.162684-3.193739 2.726088-1.119497 6.418176-1.320065 9.888208-4.50357 3.208065-3.123131 4.442172-8.361435 4.730745-11.977799 0.170892-1.944282 0.255827-4.412496 0.255826-6.106068 0.085958-1.854231-0.084934-3.808746 0.196475-5.520737 0.373507-3.15383 0.604774-5.993504 1.149173-8.544607 0.317225-0.715291 0.775666-1.38044 1.006933-2.095731 1.662873-4.955872 2.378164-9.822716 3.521197-14.355963 0.598634-2.205225 1.173732-4.614088 2.261506-6.356778l3.385097-6.508227c2.921539-3.555989 5.733585-6.728238 9.570983-10.002819 1.803066-1.601474 3.666506-3.174296 5.415337-5.036713 1.747807-1.896186 3.52529-3.325745 5.213745-5.562692a0.429789 0.429789 0 0 1 0.12075-0.141216 665.237033 665.237033 0 0 0 34.444486 2.287089c-0.403183 1.177825-0.836041 2.266623-1.062191 3.585665-0.917906 4.182252-1.838881 8.453533-2.806929 12.805654l-2.126431 5.963828-0.513699 1.521656c0.170892-0.261966-0.575098 0.684592-0.744967 0.997724l-2.066055 2.699482c-2.432399 3.980661-5.782703 6.448876-8.734942 9.479908-3.098571 3.38612-6.739495 5.964852-8.976442 10.055007-2.774183 3.697205-4.552689 7.484462-5.727445 11.151991-1.233084 3.868097-2.609431 6.79066-4.669346 9.339716-1.778506 2.529613-4.386914 4.362354-6.507204 5.993504-2.236947 1.632173-4.151553 3.00238-5.758144 4.181229-3.323699 2.205225-4.729721 4.130064-4.588505 4.181229-0.11154-0.14224 1.460258-1.713015 5.047969-3.466961 1.747807-0.916882 3.868097-2.066055 6.306636-3.385097 2.432399-1.429559 5.329379-2.799766 7.646144-5.701862 2.468215-2.488681 4.472871-6.215562 5.848195-9.621125 1.460258-3.697205 3.551896-7.082302 5.89936-10.145058 1.808182-3.243881 5.188162-5.701862 8.05956-8.573259-0.493234 1.490957-2.035356 3.183506-2.236947 5.993504-1.38044 5.64251-0.462534 12.865006 0.513699 19.827581 1.230014 6.79066 2.121314 13.499455 1.632174 18.517749 0.030699 2.548032-0.855484 4.493338-1.087775 6.04467-0.372483 1.570775-0.574075 2.407839-0.574074 2.40784s0.488117-0.715291 1.320065-2.004657c0.604774-1.411139 2.609431-3.15383 3.037172-5.873778 0.598634-2.669806 1.662873-5.882987 1.344625-9.318226 0.115634-3.496637-0.484024-6.961552-0.801249-10.517541-0.771573-3.979638-1.434675-7.738241-1.889023-11.263532 2.316765 8.281617 7.192819 17.942651 12.119015 27.452236 5.561669 10.003841 11.001565 19.947308 13.842263 27.796066 1.399883 3.959172 1.973958 7.313569 1.943258 9.80225-0.598634 2.408863-0.916882 3.78828-0.916882 3.78828s0.604774-1.320065 1.752924-3.616364c0.484024-2.518357 0.972141-6.356778-0.091075-10.689457-1.741667-8.764618-6.900154-19.221784-12.17939-29.366841-5.555529-10.003841-11.172457-19.886933-14.381545-27.624151-1.576915-3.959172-2.462075-7.192819-2.694366-9.661034 0.115634-1.087774 0.201591-1.864464 0.261967-2.51938 3.234671-3.091408 6.992251-6.105045 9.278317-9.711176l1.980098-2.76088c0.427742-0.593518 0.488117-0.5137 1.172708-1.772366l0.544399-1.691525 2.236948-6.730285c0.806365-4.301979 1.632173-8.602935 2.407839-12.69309 0.201591-1.581008 0.660032-3.093455 1.149173-4.614088 8.592702 0.251733 17.076934 0.403183 25.498744 0.372484-0.050142 0.916882-0.170892 1.833765-0.251733 2.809999-0.171915 2.257413-0.291642 3.748371-0.574075 5.702885-0.171915 4.241604-0.978281 7.16212-2.866281 9.509584-1.890047 2.116197-5.385661 3.576455-7.939833 4.987595-5.384637 2.951215-8.16496 6.043646-8.256034 5.843078 0 0 3.671623-1.692548 9.343809-3.263323 2.724041-1.149173 6.392594-1.321088 9.887184-4.503571 3.183506-3.152806 4.444219-8.392134 4.725628-12.009521 0.170892-1.913583 0.261966-4.411473 0.261967-6.074346 0.030699-1.028423 0.084934-2.004657 0.084934-3.00238a849.28684 849.28684 0 0 0 34.042327-1.057076c-0.512676 2.025123-0.941442 3.947915-1.484817 6.093789-1.321088 4.100388-1.435699 8.512884-1.435698 13.097296 0.11461 4.53427-0.574075 9.349949 0.227174 14.014178 0.604774 4.734838 1.177825 9.519818 1.777482 14.325264 1.490957 9.661034 4.387937 18.749016-0.084934 25.972534-4.071735 6.992251-11.405771 11.917424-16.73515 16.531512-2.811022 2.317789-5.248537 4.665253-7.082302 7.042393-1.77339 2.388397-3.324722 4.594645-3.667529 6.770194-1.289366 4.180206 0.433882 6.619768 0 6.588045 0.404206 0.060375-0.946558-2.578732 0.776689-6.336312 0.543376-1.944282 2.291183-3.888564 4.210905-5.873777 2.004657-1.973958 4.583388-3.947915 7.42511-6.04467 5.586229-4.381797 13.468756-8.139378 18.768459-16.621563 2.609431-4.210905 3.52529-9.540284 3.209088-14.527878-0.37146-5.157463-1.605567-9.570983-1.979074-14.295587-0.686638-4.674463-1.370207-9.369392-2.035356-13.953804-0.916882-4.614088-0.313132-9.116635-0.544399-13.560853-0.023536-4.381797-0.313132-8.682753 0.665149-12.552897 0.427742-2.437515 0.77055-4.614088 1.143033-6.850012 8.654101-0.5137 17.081027-1.108241 25.362644-1.834788 0.5137 2.610454 1.258667 5.139044 1.66185 7.768941l2.579754 11.262508 4.040013 10.720155c3.52529 6.79066 8.592702 12.976546 11.715833 19.050892 1.89414 2.811022 2.89698 6.427386 3.64297 10.145057 1.119497 3.787256 1.032516 6.568602 0.972141 10.517542-0.110517 7.283894-1.230014 15.394618 2.668783 23.413245 1.77339 3.043313 4.467755 6.851035 7.909133 9.147334 3.777023 2.378164 7.249101 2.971681 10.769275 4.443196 6.91141 2.599198 13.389962 6.618744 20.088524 9.91379l20.20518 9.973143 0.25685-0.352018-0.080841-0.171915-3.323698-2.206248 0.683568 0.605797-16.591887-10.316973c-6.589069-3.667529-12.724813-8.019651-19.717063-11.203156-3.294023-1.661849-7.363711-2.578732-9.912768-4.352122-2.669806-1.984191-4.503571-4.471848-6.448875-7.91732-2.695389-5.814426-1.949398-13.409404-1.661849-20.946054 0.084934-3.576455-0.200568-8.392134-1.375324-11.80793-0.801249-3.63683-1.809205-7.272637-4.100388-10.828627-4.010337-7.193843-8.624425-12.634762-12.493545-18.971073l-4.498454-10.144035-3.066849-10.599405c-0.629333-2.49789-1.662873-4.876054-2.40784-7.363712 5.01113-0.433882 9.998725-0.836041 14.84408-1.38044 5.188162 4.705162 9.858532 9.943466 16.678868 13.640672l0.084934 0.061398 0.086981 0.029676c3.298116 0.74599 6.562463 1.854231 9.916861 2.347465l9.712199 0.947581c3.01159 0.170892 6.185886 0.483001 9.368368 1.168616 1.692548 0.433882 3.214205 0.291642 4.412496 1.067308l3.959172 1.804089c2.830465 0.967024 4.553713 3.697205 6.961552 5.64251 2.317789 2.468215 4.524037 5.218862 7.249101 6.880711 1.404999 0.997724 2.37714 1.864464 4.186346 2.952239 1.74269 0.604774 3.464915 1.429559 5.188162 1.461281 3.435239 0.453325 6.558369 0.232291 9.6815 0.403183l6.588046 1.542122 3.324721 0.775666c0.26299 0.029676 0.517793 0.091074 0.775667 0.141216 0.286526 0.12075 0.5137 0.261966 0.947581 0.231268-0.48914-0.543376-1.033539-0.573051-1.576915-0.825809l-3.177366-1.2382-6.393617-2.457982h-0.028652l-0.146333-0.030699c-3.234671-0.74599-6.619768-0.775666-9.572006-1.410116-1.571798-0.14224-2.718925-0.937348-4.040013-1.429558l-3.495614-2.982938c-2.690272-1.974981-4.266164-4.614088-6.386454-6.820336-2.493797-2.176572-4.503571-5.329379-7.798617-6.66991l-4.814655-2.357697c-1.601474-0.916882-3.496637-0.916882-4.926196-1.340531-0.856507-0.200568-1.804089-0.200568-2.66469-0.341785 0.599657-0.12075 1.466398-0.26299 2.781347-0.494256 2.230808-0.313132 5.475711-1.198292 9.252734-1.147127 3.789303-0.343831 8.110725-0.252757 12.926404 0.028653 4.729721-0.050142 9.858532 0.776689 14.931061 1.178849 10.231015 0.886183 20.602224 2.034333 28.485775 1.772366 7.852852-0.232291 13.011338-1.198292 13.011338-1.198292s-5.249561-0.463558-12.865006-1.582031c-7.626701-1.058099-17.801435-2.659573-28.142967-3.868097-5.244444-0.222057-10.401908-0.796132-15.389502-0.575098-4.926196-0.110517-9.572006 0.724501-13.530154 1.551332-4.040013 0.433882-6.79066 2.317789-8.966209 3.012613-1.576915 0.655939-2.408863 1.057075-2.867304 1.227968-2.231831-0.403183-4.438079-0.825808-6.820336-0.88516l-9.626241-0.685615c-3.091408-0.353041-5.963829-1.2689-8.971326-1.833765-4.754281-2.579755-9.486048-6.396687-14.184047-10.145058 72.53092-7.968485 124.657114-22.355147 124.657115-22.355147-75.846432-24.27487-142.878105-33.04972-199.158923-33.845852zM806.793538 293.383934c-1.718131-2.493797-4.412496-6.963599-8.800433-10.517541-8.507768-7.90811-23.437805-15.990183-41.235147-20.00052-17.766642-3.984754-37.9708-4.069689-57.400314-0.115634-19.600407 3.611248-38.282908 11.520381-54.931077 21.863961-16.563234 10.517541-31.236422 23.413246-42.474371 38.343283-11.461029 14.586207-19.887956 30.662347-25.186635 46.338374-5.157463 15.817244-7.504928 30.775934-7.395434 42.753733-0.055259 1.261737 0.171915 2.493797 0.232291 3.724835 6.508227-8.16496 13.354146-16.247033 20.71888-24.070208 6.129604-7.136537 13.353123-13.354146 20.032242-19.716041 6.730285-6.417153 14.355963-11.57564 21.147646-17.194614 7.277754-5.015224 14.697747-9.341762 21.487384-13.668301 7.364735-3.37998 14.306844-6.561439 20.723997-9.512654 6.758937-1.949398 12.950963-3.784186 18.45635-5.387707 5.385661-1.977028 10.512425-1.603521 14.527879-2.321882 8.079002-0.859577 12.69309-1.347694 12.69309-1.347695s-4.583388 0.830925-12.582573 2.264577c-3.89982 1.001817-8.936533 0.974188-14.093997 3.324722-5.279237 1.949398-11.208273 4.183276-17.680684 6.563486a9966.992139 9966.992139 0 0 1-19.433608 10.744715c-6.356778 4.700045-13.177114 9.399067-19.857257 14.759145-6.246261 5.931083-13.18223 11.404748-19.256576 18.139126-6.049786 6.649444-12.522198 13.097296-17.998933 20.48966-8.366551 10.028401-15.644305 20.717857-22.551622 31.321356 9.002025 0.429789 38.173414-3.438309 50.922787-4.956895 14.244422-1.863441 29.519314-5.188162 44.308135-10.31595 14.924921-4.815679 29.109991-11.951193 42.207287-19.917632 26.450419-16.10377 46.538943-38.255279 61.72583-58.917877 7.652284-10.573823 14.754029-20.175505 21.549805-27.309996 3.269463-3.065825 6.53381-6.677073 8.855692-8.395204 2.432399-1.806135 3.752464-2.780323 3.752464-2.780323s-0.915859-1.490957-2.463098-4.184299z" fill="#333333" p-id="4335"></path><path d="M394.024563 430.877401c12.784164 1.518586 41.950438 5.387707 50.92688 4.929266-6.881734-10.601452-14.184047-21.262256-22.556739-31.29168-5.470595-7.394411-11.949146-13.812587-17.96721-20.519336-6.075369-6.677073-13.036921-12.177344-19.257599-18.10945-6.675026-5.360078-13.551644-10.060123-19.887956-14.759145-6.876618-3.811816-13.440104-7.42204-19.429515-10.746762a2177.315204 2177.315204 0 0 1-17.651009-6.561439c-5.188162-2.350534-10.200316-2.322905-14.128788-3.324722-7.994068-1.461281-12.55392-2.263553-12.553921-2.263553s4.615111 0.488117 12.69309 1.346671c4.015454 0.715291 9.148357 0.344854 14.532995 2.322905 5.475711 1.573845 11.661597 3.40761 18.425651 5.387707 6.447852 2.951215 13.384845 6.129604 20.74958 9.512654 6.789637 4.269233 14.184047 8.654101 21.488407 13.668301 6.79066 5.589298 14.417361 10.774391 21.147646 17.195637 6.67912 6.389524 13.871939 12.579503 20.033265 19.716041 7.340175 7.795547 14.185071 15.905248 20.718881 24.070208 0.030699-1.232061 0.286526-2.463098 0.200568-3.752463 0.084934-11.951193-2.266623-26.90886-7.42511-42.728151-5.299703-15.672958-13.721513-31.750121-25.216311-46.335304-11.233855-14.930037-25.871227-27.825742-42.439578-38.343284-16.678868-10.316973-35.33067-18.254759-54.960753-21.86396-19.404955-3.954055-39.634696-3.898797-57.400314 0.112564-17.766642 4.012384-32.757055 12.094456-41.209564 20.002566-4.352121 3.553942-7.102768 8.024767-8.795317 10.517541-1.576915 2.692319-2.407839 4.1536-2.407839 4.1536s1.289366 0.946558 3.727904 2.807952c2.346441 1.720178 5.586229 5.331425 8.880251 8.397251 6.795776 7.134491 13.867846 16.736173 21.524223 27.281343 15.21247 20.688181 35.302017 42.841737 61.726853 58.94653 13.120832 7.966439 27.250644 15.074324 42.236963 19.914562 14.755052 5.157463 30.05962 8.454556 44.274366 10.31595zM516.419148 823.447335c-0.865717-3.214205-1.752924-5.450129-1.752924-5.450129s-0.598634 2.206248-1.027399 5.64251c-0.574075 3.495614-0.061398 7.888667 0.313132 12.350283 0.402159 4.192485 1.3743 8.28264 1.429558 11.778254 0.403183 3.385097 0.916882 5.65172 0.916883 5.65172s0.892323-2.156106 1.834788-5.390777c1.239224-3.15383 0.805342-7.909134 0.689708-12.603039-0.689708-4.422729-1.632173-8.80555-2.403746-11.978822zM416.14742 881.758392c-0.887206-3.214205-1.777483-5.439896-1.777483-5.439896s-0.569982 2.206248-1.00284 5.64251c-0.575098 3.496637-0.084934 7.877411 0.287549 12.351306 0.398066 4.15053 1.375324 8.280594 1.460258 11.746532 0.403183 3.414773 0.892323 5.671163 0.892323 5.671163s0.886183-2.145873 1.833765-5.409197c1.258667-3.15383 0.801249-7.889691 0.685615-12.613272-0.686638-4.41352-1.63422-8.79634-2.379187-11.949146zM552.667723 903.075907c-0.543376-2.719948-0.88516-4.118807-1.00591-6.356779 0-2.034333 0.200568-4.100388 0.40216-5.963828 0.916882-7.706519 0.48914-13.178137 0.48914-13.178137s-0.458441 1.25969-1.288343 3.435239c-0.972141 2.096754-1.981121 5.188162-3.178389 8.996908-0.490164 1.974981-0.775666 4.181229-0.977257 6.588045-0.233314 2.297322 0.317225 5.53097 0.916882 7.596002 1.203408 4.846378 1.552356 9.521864 2.175549 14.851243a4874.586614 4874.586614 0 0 1 3.26844 28.510334l1.890047 12.955056s0.665149-20.923542-0.826832-41.868573c-0.464581-5.046946-0.808412-10.860349-1.865487-15.56551zM672.681074 891.732557c-1.808182-0.029676-3.783163-0.372483-5.848195-0.604774-1.804089-0.433882-3.839445-1.400906-5.873777-1.944281-4.210905-0.886183-8.220219-4.15974-13.409405-4.986572l-7.511067-1.461281c-2.463098-0.060375-4.900613-0.091074-7.249101-0.12075-4.754281-0.251733-8.885368 0.805342-12.552897 1.118474-7.278777 1.007957-12.120039 1.89414-12.120039 1.89414s4.89652 0.544399 12.211113 0.85753c3.637854 0.090051 7.989975-0.051165 12.401448 0.37146 2.206248 0.151449 4.472871 0.261966 6.821359 0.403183l6.678096 1.662873c4.614088 0.483001 8.769734 3.495614 13.580297 4.352121 4.706185 1.582031 9.087982 1.662873 12.755511 1.239224 7.335059-1.006933 12.094456-0.029676 12.094456-0.029676s-1.144056-0.432859-3.178389-1.177826c-2.00875-0.827855-5.303796-1.373277-8.79941-1.573845zM357.746312 844.764849c4.900613 0.404206 9.686616-1.520633 14.271028-0.836041l6.874571 0.030699c2.297322 0.463558 4.559852 0.886183 6.740518 1.319042 4.321422 0.654916 8.53335 1.833765 12.08934 2.669806 7.163143 1.480724 12.039197 2.145873 12.039197 2.145873s-4.473895-2.034333-11.29423-4.815679c-3.495614-1.198292-7.223518-3.213181-11.892865-4.180206-2.292206-0.543376-4.669346-1.118474-7.046487-1.692548l-7.656377-0.432859c-5.239328-0.453325-9.883091 1.723248-14.18507 1.520633-4.210905 0.574075-8.42181 0.574075-12.003382-0.372483-3.470031-0.685615-6.794753-0.947582-8.940626-0.654916-2.121314 0.251733-3.355421 0.39295-3.355421 0.39295s4.846378 0.201591 11.697413 2.981914c3.434216 1.320065 7.735172 2.326998 12.662391 1.923815z" fill="#333333" p-id="4336"></path></svg>