<?xml version="1.0" standalone="no"?><!DOCTYPE svg PUBLIC "-//W3C//DTD SVG 1.1//EN" "http://www.w3.org/Graphics/SVG/1.1/DTD/svg11.dtd"><svg t="1695760359815" class="icon" viewBox="0 0 1097 1024" version="1.1" xmlns="http://www.w3.org/2000/svg" p-id="23253" xmlns:xlink="http://www.w3.org/1999/xlink" width="214.2578125" height="200"><path d="M440.555466 539.129028C457.859892 537.206314 470.037082 539.769933 477.087033 546.819885 484.136985 553.869837 487.021056 565.726573 485.739246 582.390095 484.457437 599.694521 482.534723 619.242114 479.971104 641.032874 477.407485 662.823633 474.68364 685.09507 471.79957 707.847187 468.915499 730.599304 466.191653 753.191191 463.628035 775.622858 461.064416 798.054524 458.82125 818.883924 456.898536 838.111064 454.975822 858.620016 449.20768 871.598332 439.594109 877.046027 429.980539 882.493714 419.405611 879.128968 407.869326 866.951774 400.819375 859.901828 391.84671 851.249615 380.95133 840.995135 370.055951 830.740663 360.762832 822.088449 353.071976 815.038495 344.740215 806.706737 337.049358 803.822666 329.999407 806.386282 322.949455 808.949906 314.938147 814.718048 305.965481 823.690709 296.351911 833.304279 283.694043 846.122375 267.991878 862.144989 252.289714 878.167611 235.946644 894.831128 218.962669 912.135562 201.978694 929.439988 185.475399 946.263732 169.452782 962.606802 153.430166 978.949871 140.29162 991.928194 130.037144 1001.541764 126.191715 1006.028095 121.545156 1010.193978 116.097467 1014.039406 110.649777 1017.884834 104.881635 1020.608677 98.79304 1022.210937 92.704446 1023.813203 86.295398 1023.652976 79.565899 1021.730262 72.8364 1019.807548 65.626222 1015.000763 57.935366 1007.309907 53.449033 1002.823569 49.763831 999.298596 46.879759 996.734979 43.995688 994.171356 41.271843 991.607739 38.708225 989.044123L30.056012 980.39191 17.55837 967.894269C3.458467 953.794361-2.149449 941.617174 0.734622 931.362695 3.618693 921.108222 12.110681 908.610581 26.210583 893.869771 32.61963 887.460727 43.194557 877.046027 57.935366 862.625672 72.676174 848.205316 88.218112 832.663377 104.561182 815.999852 120.904251 799.336336 136.766642 783.153486 152.148356 767.451327 167.530069 751.74916 179.707258 739.411746 188.679923 730.439078 201.498017 717.620984 210.15023 706.565377 214.636563 697.27226 219.122896 687.979142 216.879729 678.84625 207.907063 669.873584 201.498017 663.464538 193.486709 654.97255 183.873138 644.397623 174.259568 633.822696 165.927807 625.010256 158.877855 617.960304 147.341571 606.42402 143.015463 596.009319 145.899534 586.7162 148.783605 577.423083 159.198306 571.815167 177.143638 569.892453 195.08897 567.969739 215.277467 565.566346 237.709131 562.682275 260.140795 559.798203 283.213364 557.074359 306.926838 554.51074 330.640312 551.947122 354.033333 549.223277 377.105902 546.339206 400.17847 543.455135 421.328325 541.051742 440.555466 539.129028L440.555466 539.129028ZM1013.52426 53.643725C1027.624161 67.743628 1033.872985 80.401496 1032.270718 91.617328 1030.668459 102.833159 1022.496928 115.81148 1007.756118 130.552288 1000.706164 137.602239 989.97101 148.497619 975.550654 163.238427 961.130299 177.979235 945.428139 193.841626 928.44416 210.825601 911.460189 227.809575 895.117119 244.312871 879.414952 260.335487 863.712785 276.358104 851.375371 288.855745 842.402703 297.828412 829.584615 310.646506 821.733531 320.90098 818.84946 328.591836 815.965389 336.282693 819.009687 344.614454 827.982348 353.58712 834.3914 359.996166 841.922029 367.847249 850.574242 377.140367 859.226455 386.433485 867.077538 394.60502 874.127492 401.654971 885.663777 413.191256 889.829652 423.605957 886.625134 432.899075 883.420608 442.192194 873.166135 447.800109 855.861709 449.722823 837.916373 451.645537 817.727876 454.04893 795.296209 456.933001 772.864551 459.817072 749.631755 462.540917 725.597827 465.104535 701.563902 467.668154 678.010654 470.391998 654.938085 473.27607 631.865516 476.160141 611.036114 478.563534 592.449878 480.486248 559.122834 484.331676 543.741122 470.231773 546.304741 438.186538 548.227455 420.882111 550.310395 401.334518 552.553561 379.543759 554.796727 357.753 557.360347 335.321336 560.244418 312.248766 563.128489 289.176198 565.852334 266.424081 568.415952 243.992417 570.979571 221.560753 573.222737 200.73135 575.145451 181.50421 577.068165 160.99526 582.836308 148.016939 592.449878 142.569249 602.063449 137.121559 612.958828 140.486308 625.136017 152.663498 628.340541 156.508926 632.506421 160.835033 637.633659 165.641818 642.760897 170.448603 648.04836 175.415614 653.49605 180.542852 658.943739 185.670089 664.231204 190.6371 669.358441 195.443886 674.485679 200.250671 678.972012 204.576777 682.81744 208.422206 691.1492 216.753967 697.878699 220.439169 703.005937 219.477812 708.133174 218.516455 715.183126 213.549444 724.155792 204.576779 733.76936 194.963208 746.587456 181.984887 762.610071 165.641818 778.632693 149.298748 795.456437 132.314774 813.081318 114.689895 830.706199 97.065016 847.690171 79.920815 864.03324 63.257294 880.376309 46.593772 893.67508 33.134773 903.92956 22.880298 907.774988 19.034869 912.261318 15.029215 917.388558 10.863335 922.515791 6.697455 927.963485 3.653157 933.731628 1.730443 939.49977-0.192272 945.588367-0.512724 951.997411 0.769086 958.406455 2.050896 965.456409 6.537229 973.147265 14.228084 977.633596 18.714417 981.318796 22.239393 984.202875 24.803012 987.086946 27.366631 989.810789 29.93025 992.374406 32.493869L1001.026619 41.146082 1013.52426 53.643725Z" fill="#FFFFFF" p-id="23254"></path></svg>