<?xml version="1.0" standalone="no"?><!DOCTYPE svg PUBLIC "-//W3C//DTD SVG 1.1//EN" "http://www.w3.org/Graphics/SVG/1.1/DTD/svg11.dtd"><svg t="1693936917568" class="icon" viewBox="0 0 1024 1024" version="1.1" xmlns="http://www.w3.org/2000/svg" p-id="4801" xmlns:xlink="http://www.w3.org/1999/xlink" width="200" height="200"><path d="M465.098295 889.113917c6.846942-63.85533 31.333636-308.427558 2.977821-397.945361-10.118452-31.92306-45.274136-56.989969-60.845787-91.823312 1.49198-1.36816 5.585205-4.006244 7.643074-4.468778 0.028653-0.696872 31.30396 58.008158 48.748261 46.949288 17.439184-11.062963-11.063987-142.18942-8.377808-231.874021 2.197038-1.447978 6.350638-1.447978 9.529027-1.013073-0.068562 54.085826 8.314363 229.797733 64.178695 251.466242 35.735899 13.852496 82.675978-4.273327 111.73685-18.24248 2.087545 3.060709 3.370771 6.247284 3.418866 9.123798-33.062 20.519336-79.95603 23.472598-99.19828 66.124-26.221198 58.154491-12.540617 262.241656 2.286066 371.703697L465.098295 889.113917z" p-id="4802"></path><path d="M379.874285 139.904377c0.491187-12.749372 4.653997-19.129686 10.776438-30.034037 2.480494-4.414543 9.148357-15.980973 10.556427-20.572548 1.403976-4.556783 0.097214-12.154831 2.285043-15.848966 1.340531 6.326079 4.337795 7.441483 8.197706 11.657504 3.635807 3.963265 6.774287 7.185656 11.302417 9.763364 5.581112 3.211135 19.066241 7.262404 25.836435 14.626115 8.465812 9.211802 18.774599 34.126238 2.90005 44.351114-7.652284 4.942569-18.721387 2.033309-24.841781 6.058996-4.381797-7.281847-13.027711-36.120662-13.310144-35.852556 9.025561 44.419675 23.662933 66.050322 38.980803 74.999135 1.349741 0.779759 0.044002 2.198062-0.044002 4.152577-3.201925-3.113921-6.783497-6.063089-9.718339-9.216919-10.688433-11.468193-15.684214-23.170722-19.544125-32.152281-7.886621 0.267083-18.667152 10.273994-28.761044 5.946432C384.528282 163.53354 379.586736 147.806347 379.874285 139.904377z" p-id="4803"></path><path d="M481.830375 107.697861c11.069103-6.335289 18.696828-6.170536 31.18321-6.749728 5.064342-0.233314 18.393929-0.681522 23.033599-1.920746 4.611018-1.213641 10.377348-6.354731 14.671141-6.446829-4.65502 4.479011-4.040013 7.622608-5.565762 13.130042-1.428535 5.182023-2.499937 9.538237-2.310625 14.753005 0.243547 6.414083 3.928472 20.031219 1.25355 29.652344-3.328815 12.06785-19.033495 33.979906-36.100196 25.934672-8.237615-3.880377-11.628852-14.826684-18.277272-17.882276 3.850701-7.556093 23.774473-30.175253 23.375383-30.258141-32.913621 31.15865-43.524283 55.022151-43.016723 72.747861 0.053212 1.554402-1.833765 1.194198-3.548826 2.15406 0.945535-4.348028 1.559519-8.958022 2.675946-13.114692 4.094248-15.143908 11.375072-25.568329 16.956184-33.600259-4.396123-6.53074-18.58938-10.400884-20.270672-21.255093C464.235648 124.143415 474.958874 111.627357 481.830375 107.697861z" p-id="4804"></path><path d="M700.305225 367.120308c12.723789-1.106194 19.568684 2.231831 31.147394 6.925736 4.699022 1.905396 17.000186 7.087419 21.725814 7.899924 4.711302 0.823761 12.089339-1.417279 16.023952 0.287549-6.104021 2.119267-6.848988 5.234211-10.55131 9.587356-3.473101 4.103458-6.258541 7.617491-8.278547 12.437264-2.465145 5.941316-4.830005 19.841907-11.258415 27.474748-8.086166 9.538237-31.514761 22.87294-43.659359 8.420787-5.857405-6.978948-4.341888-18.325367-9.118682-23.896246 6.682189-5.240351 34.218336-17.443277 33.906228-17.682731-42.935881 14.514575-62.554708 31.743982-69.499887 48.060599-0.6191 1.438769-2.189875 0.312108-4.126994 0.467651 2.663666-3.547803 5.1503-7.485485 7.893784-10.785647 10.064216-12.048407 21.042245-18.461467 29.473265-23.414269-1.257643-7.78736-12.525268-17.247826-9.513678-27.800159C677.447635 374.692774 692.428837 367.821273 700.305225 367.120308z" p-id="4805"></path><path d="M739.273748 464.966801c7.095605 10.619872 7.456832 18.228153 8.904811 30.642904 0.578168 5.0449 1.962701 18.311041 3.523243 22.848381 1.540076 4.52813 7.071046 9.908674 7.461949 14.184047-4.797259-4.323469-7.894807-3.495614-13.476943-4.64581-5.281283-1.057075-9.694803-1.817392-14.899338-1.26276-6.374174 0.696872-19.690458 5.314029-29.487591 3.320629-12.260232-2.472308-35.217083-16.600073-28.381397-34.1948 3.292999-8.500605 13.970176-12.639878 16.558118-19.490913 7.809873 3.332908 31.739888 21.599947 31.816636 21.215184-33.381271-30.665417-57.925271-39.58046-75.574233-37.826514-1.559519 0.156566-1.325182-1.76418-2.396583-3.39226 4.394077 0.63445 9.049097 0.927115 13.256932 1.749854 15.404852 3.01773 26.312272 9.552563 34.701336 14.558577 6.218632-4.840238 9.094122-19.276019 19.811208-21.699208C721.632973 448.576505 734.867392 458.406384 739.273748 464.966801z" p-id="4806"></path><path d="M677.266509 546.024931c-3.201925 12.368702-8.630564 17.706267-16.930601 27.054169-3.367701 3.801583-12.350283 13.658068-14.694677 17.848507-2.339278 4.170996-2.673899 11.873422-5.609765 15.005762 0.035816-6.457062-2.647293-8.201799-5.51255-13.134135-2.728134-4.640694-5.098111-8.451486-8.966209-11.95631-4.77884-4.297886-17.09433-11.155061-22.134113-19.792788-6.311753-10.79588-11.066033-37.32407 6.614651-43.941791 8.523117-3.213181 18.710131 2.006703 25.557072-0.644683 2.720971 8.061606 5.037736 38.084387 5.378497 37.870516 0.626263-45.322232-9.066493-69.569472-22.13309-81.56876-1.149173-1.046842 0.432859-2.153036 0.939395-4.030803 2.451842 3.694135 5.333472 7.364735 7.525394 11.059893 7.998161 13.485129 10.391674 25.973558 12.254092 35.563984 7.749498 1.428535 20.437471-6.048763 29.369911 0.321318C677.748487 521.942443 679.231257 538.362414 677.266509 546.024931z" p-id="4807"></path><path d="M556.707736 178.715311c11.444657 5.668093 15.532765 12.082176 22.99062 22.122857 3.010567 4.073782 10.833743 14.904455 14.439874 18.053168 3.587712 3.15383 11.06501 5.073552 13.519921 8.578376-6.306636-1.359974-8.569166 0.8913-13.992689 2.700505-5.089925 1.695618-9.314133 3.236718-13.529131 6.320962-5.201465 3.78214-14.435781 14.426571-23.921829 17.585517-11.868305 3.947915-38.810934 3.143597-41.651632-15.509229-1.384533-9.021467 5.819542-17.926278 4.63967-25.143657 8.441253-1.023306 38.298258 2.889817 38.151925 2.51938-44.221154-9.948583-69.934792-5.445012-84.371596 4.863774-1.26276 0.916882-2.01796-0.858554-3.762697-1.739621 4.137227-1.638313 8.314363-3.714602 12.374842-5.088902 14.851243-5.058203 27.556613-4.824889 37.33942-4.669346 2.987031-7.296173-1.722224-21.24486 6.345522-28.683273C533.236162 173.294858 549.612131 175.210487 556.707736 178.715311z" p-id="4808"></path><path d="M372.480898 306.029952c5.288446-11.614525 11.555174-15.931854 21.35333-23.711028 3.962242-3.15383 14.514575-11.332093 17.559934-15.035438 3.031033-3.694135 4.704139-11.224646 8.120958-13.81361-1.159406 6.361895 1.184989 8.535397 3.157923 13.900591 1.871627 5.043876 3.558036 9.19236 6.769171 13.320377 3.952009 5.068436 14.904455 13.944594 18.374486 23.316032 4.352121 11.727089 4.430916 38.689161-14.100136 42.140773-8.972349 1.682315-18.116613-5.210675-25.304316-3.796466-1.291412-8.388041 1.62194-38.362726 1.261737-38.216393-8.476045 44.532239-3.109828 70.091358 7.686053 84.166935 0.950651 1.238201-0.799202 2.050706-1.617847 3.815909-1.774413-4.078899-3.991917-8.17417-5.507434-12.19474-5.556553-14.669094-5.736655-27.38572-5.91164-37.158295-7.379061-2.743484-21.167089 2.432399-28.872584-5.390777C367.840204 329.659115 369.220644 313.24426 372.480898 306.029952z" p-id="4809"></path><path d="M359.58417 176.249143c-10.722202 6.930853-14.07046 13.778818-20.323884 24.598234-2.524496 4.397147-9.04091 16.035208-12.272511 19.594267-3.212158 3.538593-10.420327 6.281053-12.472056 10.060123 6.131651-2.062985 8.631588-0.078795 14.22191 1.086751 5.269004 1.110287 9.626241 2.158153 14.167674 4.735861 5.600555 3.15076 15.996322 12.663414 25.768897 14.72026 12.237719 2.582825 38.923498-1.310855 39.61423-20.152992 0.326435-9.114588-7.832386-17.141402-7.495718-24.472368-8.490372-0.034792-37.709857 7.270591-37.616736 6.890944 42.801828-14.938224 68.862367-13.408381 84.380806-4.819772 1.364067 0.760317 1.90028-1.091868 3.538593-2.164293-4.293793-1.155313-8.66638-2.734274-12.873192-3.635807-15.332197-3.333932-27.927049-1.638313-37.630039-0.375553-3.792373-6.897084-0.711198-21.299095-9.591449-27.757181C382.262682 168.164001 366.222357 171.945117 359.58417 176.249143z" p-id="4810"></path><path d="M564.173778 362.245278c-11.939937-4.474918-19.426445-3.090385-31.849382-1.657756-5.02648 0.576121-18.268062 2.276856-23.048949 1.808182-4.752234-0.477884-11.248182-4.616134-15.508205-4.015454 5.311982 3.683902 5.200442 6.872524 7.587815 12.047384 2.252297 4.907777 4.012384 9.027607 4.649903 14.2127 0.789992 6.370081-0.657986 20.396539 3.523243 29.462009 5.225001 11.370978 24.223704 30.481222 39.787168 19.808138 7.514137-5.157463 9.103332-16.493649 15.181771-20.587897-5.034666-6.837732-28.302603-25.958208-27.932166-26.114774 37.488823 25.480324 51.785433 47.325865 54.124711 64.924685 0.198521 1.540076 2.016937 0.87288 3.849678 1.540076-1.63729-4.139274-2.966565-8.596795-4.753257-12.505825-6.446829-14.300704-15.31787-23.414269-22.110577-30.442336 3.289929-7.16519 16.688077-13.262048 16.591887-24.243147C584.195787 375.662869 571.590702 365.023554 564.173778 362.245278z" p-id="4811"></path><path d="M668.426167 362.41003c-4.40124-11.978822-10.346649-16.73515-19.537985-25.211195-3.725858-3.427052-13.662161-12.351306-16.411785-16.288988-2.752694-3.90289-3.858888-11.526521-7.092535-14.347776 0.678452 6.418176-1.807159 8.426927-4.172019 13.622252-2.230808 4.888334-4.221138 8.915044-7.718799 12.793374-4.327562 4.752234-15.880689 12.809747-20.037359 21.892613-5.190209 11.385305-7.252171 38.260395 10.990309 43.090401 8.810666 2.310625 18.438954-3.898797 25.499767-1.949398 1.89721-8.280594 1.195222-38.396495 1.541099-38.210253 5.187139 45.024449-2.0241 70.124104-13.811564 83.370803-1.038656 1.171686 0.63752 2.116197 1.324158 3.924379 2.086521-3.927449 4.578272-7.861038 6.384407-11.755742 6.614651-14.226003 7.729032-26.889417 8.613168-36.626175 7.564279-2.189875 20.929682 3.971451 29.192879-3.26537C671.33645 386.317533 671.171698 369.839233 668.426167 362.41003z" p-id="4812"></path><path d="M502.189052 336.837608c12.038174 4.240581 19.48989 2.701528 31.884175 1.019213 5.02034-0.672312 18.228153-2.641153 23.014156-2.2656 4.761444 0.379647 11.346419 4.3951 15.582907 3.713578-5.395894-3.568269-5.343705-6.779404-7.842619-11.902074-2.349511-4.840238-4.182252-8.944719-4.927219-14.110369-0.915859-6.359848 0.257873-20.406772-4.084015-29.398564-5.464455-11.262508-24.841781-29.993105-40.194444-18.99768-7.407714 5.297656-8.759501 16.667611-14.757099 20.874423 5.160533 6.736425 28.794813 25.39232 28.442796 25.558096-37.991266-24.725124-52.729945-46.296419-55.405891-63.822584-0.234337-1.540076-2.042519-0.858554-3.88447-1.487887 1.721201 4.108574 3.143597 8.53949 4.995781 12.419867 6.750751 14.168698 15.786545 23.101137 22.717398 29.998221-3.133364 7.218402-16.414855 13.579273-16.107863 24.554232C481.928612 323.821153 494.71687 334.205665 502.189052 336.837608z" p-id="4813"></path><path d="M340.527139 326.310857c-12.759605 0.38067-19.164478 4.503571-30.119995 10.526751-4.429893 2.437515-16.040325 9.027607-20.650319 10.391674-4.581342 1.38044-12.160971 0-15.874549 2.174526 6.306636 1.384533 7.423063 4.397147 11.595083 8.275477 3.937682 3.679809 7.116071 6.837732 9.679453 11.390421 3.148713 5.609765 7.120165 19.125593 14.426571 25.947975 9.138124 8.534374 33.970696 19.022239 44.322461 3.245927 5.004991-7.609305 2.173502-18.695804 6.257517-24.796756-7.252171-4.41659-36.031635-13.307074-35.745109-13.589506 44.348044 9.381671 65.855894 24.183795 74.687026 39.58046 0.769526 1.350764 2.188852 0.049119 4.143367-0.028653-3.081175-3.207042-6.004761-6.819313-9.128915-9.776667-11.389398-10.776438-23.047926-15.864316-32.001855-19.797905 0.321318-7.857968 10.41521-18.58938 6.17463-28.716019C364.126626 331.160305 348.437296 326.077543 340.527139 326.310857z" p-id="4814"></path><path d="M320.670905 424.549276c-8.065699 9.903557-9.138124 17.438161-11.755742 29.661553-1.046842 4.956895-3.669576 18.052145-5.643534 22.424732-1.963725 4.352121-7.969509 9.201569-8.758478 13.418614 5.185093-3.865028 8.196683-2.739391 13.855566-3.353374 5.351891-0.560772 9.826809-0.906649 14.948457 0.14224 6.291287 1.281179 19.110243 7.129374 29.057803 6.072299 12.429077-1.315972 36.612872-13.233396 31.451316-31.391964-2.480494-8.769734-12.710486-13.881149-14.641465-20.962427-8.104585 2.587941-33.644261 18.531052-33.67803 18.136056 36.115546-27.395954 61.380976-33.966603 78.80481-30.56411 1.520633 0.301875 1.477654-1.61887 2.691295-3.148713-4.450359 0.223081-9.091052 0.066515-13.364379 0.500397-15.610536 1.550309-27.078729 7.039323-35.910884 11.245112-5.746888-5.405103-7.242961-20.045545-17.682731-23.468504C339.771939 409.878135 325.666686 418.422741 320.670905 424.549276z" p-id="4815"></path></svg>