<?xml version="1.0" standalone="no"?><!DOCTYPE svg PUBLIC "-//W3C//DTD SVG 1.1//EN" "http://www.w3.org/Graphics/SVG/1.1/DTD/svg11.dtd"><svg t="1693936929560" class="icon" viewBox="0 0 1024 1024" version="1.1" xmlns="http://www.w3.org/2000/svg" p-id="4950" xmlns:xlink="http://www.w3.org/1999/xlink" width="200" height="200"><path d="M219.392 960a17.984 17.984 0 1 1 0-35.968h274.304v-108.48a330.688 330.688 0 0 0-65.344-80.256c-166.4-2.56-300.416-67.264-300.416-287.36 198.4 0 298.112 48.192 309.696 246.4 3.264 3.2 6.912 6.4 10.944 10.304a428.8 428.8 0 0 1 44.8 46.848V523.2A225.344 225.344 0 0 0 425.6 410.176l-20.544-21.824C280.96 378.176 255.68 308.032 255.68 192.064c140.8-2.304 179.2 60.608 182.528 178.624l13.76 14.656a397.184 397.184 0 0 1 41.408 48.768l24.64-125.504a433.856 433.856 0 0 1 2.816-48.384c-32.96-86.72 21.76-175.296 177.472-196.224A174.784 174.784 0 0 1 554.88 295.296v13.568l-24.704 199.104a496.32 496.32 0 0 1 41.408-50.816l5.184-5.632c8.384-179.2 80.576-195.456 236.8-195.456 0 208.256-66.624 232.192-222.4 233.472A213.056 213.056 0 0 0 530.112 595.2v241.92a804.352 804.352 0 0 1 76.8-91.2 423.552 423.552 0 0 1 35.2-50.112c14.784-152.384 102.4-183.744 253.76-183.744 3.072 185.6-80.192 231.68-245.504 233.536a577.28 577.28 0 0 0-13.12 20.544 25.6 25.6 0 0 1-1.92 2.304s0 0.512-0.448 0.704a653.312 653.312 0 0 0-104.768 136.192v18.816h310.848a17.984 17.984 0 1 1 0 35.968z" fill="#FFFFFF" p-id="4951"></path></svg>