<?xml version="1.0" standalone="no"?><!DOCTYPE svg PUBLIC "-//W3C//DTD SVG 1.1//EN" "http://www.w3.org/Graphics/SVG/1.1/DTD/svg11.dtd"><svg t="1693936899107" class="icon" viewBox="0 0 1024 1024" version="1.1" xmlns="http://www.w3.org/2000/svg" p-id="4503" xmlns:xlink="http://www.w3.org/1999/xlink" width="200" height="200"><path d="M512 510.4c-4 0-7.2-1.6-10.4-4-79.2-66.4-123.2-155.2-123.2-249.6S422.4 73.6 501.6 7.2c5.6-4.8 14.4-4.8 20.8 0 79.2 66.4 123.2 155.2 123.2 249.6S601.6 440 522.4 506.4c-3.2 2.4-6.4 4-10.4 4z m0-469.6c-65.6 59.2-101.6 135.2-101.6 216s36 156.8 101.6 216c65.6-59.2 101.6-135.2 101.6-216S577.6 100 512 40.8zM663.2 744.8c-11.2 0-23.2-0.8-35.2-1.6-8-0.8-13.6-7.2-14.4-14.4-9.6-103.2 22.4-196.8 88.8-263.2 66.4-66.4 160-98.4 263.2-88.8 8 0.8 13.6 7.2 14.4 14.4 9.6 103.2-22.4 196.8-88.8 263.2-58.4 59.2-138.4 90.4-228 90.4z m-18.4-32c88 4.8 167.2-24 224.8-80.8 56.8-56.8 85.6-136 80.8-224.8-88-4.8-167.2 24-224.8 80.8-56.8 57.6-85.6 136.8-80.8 224.8zM360.8 744.8c-89.6 0-169.6-31.2-228.8-90.4-66.4-66.4-98.4-160-88.8-263.2 0.8-8 7.2-13.6 14.4-14.4 103.2-9.6 196.8 22.4 263.2 88.8 66.4 66.4 98.4 160 88.8 263.2-0.8 8-7.2 13.6-14.4 14.4-11.2 1.6-23.2 1.6-34.4 1.6zM73.6 407.2c-4.8 88 24 167.2 80.8 224.8 56.8 56.8 136 85.6 224.8 80.8 4.8-88-24-167.2-80.8-224.8-56.8-56.8-136-84.8-224.8-80.8z" fill="#303C42" p-id="4504"></path><path d="M512 1020c-8.8 0-16-7.2-16-16V494.4c0-8.8 7.2-16 16-16s16 7.2 16 16v509.6c0 8.8-7.2 16-16 16z" fill="#303C42" p-id="4505"></path><path d="M512 799.2c-2.4 0-4.8-0.8-6.4-1.6L384 740.8c-8-4-11.2-13.6-8-21.6 4-8 13.6-11.2 21.6-8L512 765.6 626.4 712c8-4 17.6 0 21.6 8s0 17.6-8 21.6l-120.8 56.8c-2.4 0-4.8 0.8-7.2 0.8z" fill="#303C42" p-id="4506"></path><path d="M512 399.2c-4.8 0-8-3.2-8-8V157.6c0-4.8 3.2-8 8-8s8 3.2 8 8v233.6c0 4-3.2 8-8 8z" fill="#303C42" p-id="4507"></path><path d="M329.6 668c-2.4 0-4-0.8-5.6-2.4l-205.6-200c-3.2-3.2-3.2-8 0-11.2 3.2-3.2 8-3.2 11.2 0l205.6 200c3.2 3.2 3.2 8 0 11.2-1.6 1.6-4 2.4-5.6 2.4z" fill="#303C42" p-id="4508"></path><path d="M688 668c-2.4 0-4-0.8-5.6-2.4-3.2-3.2-3.2-8 0-11.2l205.6-200c3.2-3.2 8-3.2 11.2 0 3.2 3.2 3.2 8 0 11.2l-205.6 200c-1.6 1.6-3.2 2.4-5.6 2.4z" fill="#303C42" p-id="4509"></path></svg>